{"title":"Dracula.2012.BRRip XviD juggs","uid":8266967,"size":746695181,"categoryP":"video","categoryS":"movies","magnet":"?xt=urn:btih:88dda841b3466a53ba6a559995b7fe6711c02bff&amp;dn=Dracula.2012.BRRip+XviD+juggs&amp;tr=udp%3A%2F%2Ftracker.openbittorrent.com%3A80&amp;tr=udp%3A%2F%2Fopen.demonii.com%3A1337&amp;tr=udp%3A%2F%2Ftracker.coppersurfer.tk%3A6969&amp;tr=udp%3A%2F%2Fexodus.desync.com%3A6969","seeders":2,"leechers":0,"uploader":"juggs99","files":3,"time":1363533475,"description":"Source :PHD (Thanks)\n\n\nFormat : AVI\nFormat/Info : Audio Video Interleave\nFile size : 701 MiB\nDuration : 1h 50mn\nOverall bit rate : 890 Kbps\nWriting library : VirtualDub build 32842/release\n\nVideo\nID : 0\nFormat : MPEG-4 Visual\nFormat profile : Advanced Simple@L5\nFormat settings, BVOP : 4\nFormat settings, QPel : No\nFormat settings, GMC : No warppoints\nFormat settings, Matrix : Default (H.263)\nMuxing mode : Packed bitstream\nCodec ID : XVID\nCodec ID/Hint : XviD\nDuration : 1h 50mn\nBit rate : 753 Kbps\nWidth : 640 pixels\nHeight : 272 pixels\nDisplay aspect ratio : 2.35:1\nFrame rate : 23.976 fps\nColor space : YUV\nChroma subsampling : 4:2:0\nBit depth : 8 bits\nScan type : Progressive\nCompression mode : Lossy\nBits/(Pixel*Frame) : 0.180\nStream size : 592 MiB (85%)\nWriting library : XviD 64\n\nAudio\nID : 1\nFormat : MPEG Audio\nFormat version : Version 1\nFormat profile : Layer 3\nCodec ID : 55\nCodec ID/Hint : MP3\nDuration : 1h 50mn\nBit rate mode : Constant\nBit rate : 128 Kbps\nChannel(s) : 2 channels\nSampling rate : 44.1 KHz\nCompression mode : Lossy\nStream size : 101 MiB (14%)\nAlignment : Split accross interleaves\nInterleave, duration : 42 ms (1.00 video frame)\nInterleave, preload duration : 500 ms\nWriting library : LAME3.99r\nEncoding settings : -m s -V 4 -q 3 -lowpass 17 -b 128\n\nPlot\nThe tale begins with Jonathan Harker, journeying by train and carriage from England to Count Dracula's crumbling, remote castle situated in the Carpathian Mountains on the border of Transylvania. The purpose of his mission is to catalogue the big library of Dracula. At first enticed by Dracula's gracious manner, Harker soon discovers that he has become a prisoner in the castle. He also begins to see disquieting facets of Dracula's nocturnal life. One night while searching for a way out of the castle, and against Dracula's strict admonition not to venture outside his room at night, Harker falls under the spell of three wanton female vampires, the Brides of Dracula.\n &lt;a href=&quot;\nhttp://www.shotpix.com/images/71371510906781419221.png&quot; rel=&quot;nofollow&quot; target=&quot;_NEW&quot;&gt;\nhttp://www.shotpix.com/images/71371510906781419221.png&lt;/a&gt; &lt;a href=&quot;\nhttp://www.shotpix.com/images/64366411469407013200.png&quot; rel=&quot;nofollow&quot; target=&quot;_NEW&quot;&gt;\nhttp://www.shotpix.com/images/64366411469407013200.png&lt;/a&gt; &lt;a href=&quot;\nhttp://www.shotpix.com/images/38734841764539456017.png&quot; rel=&quot;nofollow&quot; target=&quot;_NEW&quot;&gt;\nhttp://www.shotpix.com/images/38734841764539456017.png&lt;/a&gt;","torrent":{"xt":"urn:btih:88dda841b3466a53ba6a559995b7fe6711c02bff","amp;dn":"Dracula.2012.BRRip+XviD+juggs","amp;tr":["udp%3A%2F%2Ftracker.openbittorrent.com%3A80","udp%3A%2F%2Fopen.demonii.com%3A1337","udp%3A%2F%2Ftracker.coppersurfer.tk%3A6969","udp%3A%2F%2Fexodus.desync.com%3A6969"],"infoHash":"88dda841b3466a53ba6a559995b7fe6711c02bff","infoHashBuffer":{"type":"Buffer","data":[136,221,168,65,179,70,106,83,186,106,85,153,149,183,254,103,17,192,43,255]},"announce":[],"urlList":[]}}